<svg width="51" height="41" viewBox="0 0 51 41" fill="none" xmlns="http://www.w3.org/2000/svg">
<path d="M2.5702 18.1771L2.56925 18.1799C1.38782 21.673 0.793335 25.0487 0.793335 28.3047V37.4126C0.793335 38.7934 1.91262 39.9126 3.29334 39.9126H14.5622C15.9429 39.9126 17.0622 38.7934 17.0622 37.4126L17.0622 28.1957L17.0622 28.1916C17.0273 24.0376 17.6896 20.255 19.0413 16.8372C20.2029 13.9445 21.5931 11.1503 23.2121 8.45466C23.9071 7.29753 23.6031 5.77518 22.4626 5.01522L16.4359 0.999283C15.5207 0.389437 14.2912 0.438 13.458 1.19772C11.2871 3.17713 9.30304 5.51452 7.50467 8.20677L7.50399 8.20781C5.43062 11.3285 3.78583 14.6519 2.5702 18.1771ZM29.4498 18.1771L29.4488 18.1799C28.2674 21.673 27.6729 25.0487 27.6729 28.3047V37.4126C27.6729 38.7934 28.7922 39.9126 30.1729 39.9126H41.4418C42.8225 39.9126 43.9418 38.7934 43.9418 37.4126L43.9418 28.1957L43.9417 28.1916C43.9069 24.0378 44.5691 20.2553 45.9207 16.8377C47.0823 13.9447 48.4726 11.1505 50.0917 8.45466C50.7867 7.29753 50.4826 5.77518 49.3422 5.01522L43.3155 0.999282C42.4003 0.389437 41.1708 0.438 40.3376 1.19772C38.1666 3.17713 36.1826 5.51452 34.3842 8.20677L34.3836 8.20781C32.3102 11.3285 30.6654 14.6519 29.4498 18.1771Z" fill="#FFE566" stroke="#FFE566"/>
</svg>
